<svg xmlns="http://www.w3.org/2000/svg" height="30" viewBox="0 -960 960 960" width="32" fill="#808080"><path d="M160-448.462v76.153q0 4.616 3.846 8.463 3.847 3.846 8.463 3.846h615.382q4.616 0 8.463-3.846 3.846-3.847 3.846-8.463v-76.153H160Zm12.309-411.537h615.382q29.923 0 51.115 21.193 21.193 21.192 21.193 51.115v415.382q0 29.923-21.193 51.115-21.192 21.193-51.115 21.193H618.46v185.383L480-183.848l-138.46 69.23v-185.383H172.309q-29.923 0-51.115-21.193-21.193-21.192-21.193-51.115v-415.382q0-29.923 21.193-51.115 21.192-21.193 51.115-21.193ZM160-551.538h640v-236.153q0-4.616-3.846-8.463-3.847-3.846-8.463-3.846H172.309q-4.616 0-8.463 3.846-3.846 3.847-3.846 8.463v236.153Zm0 179.229V-800h12.309q-4.616 0-8.463 3.846-3.846 3.847-3.846 8.463v415.382q0 4.616 3.846 8.463 3.847 3.846 8.463 3.846H160v-12.309Z"/></svg>