<svg xmlns="http://www.w3.org/2000/svg" height="24" viewBox="0 -960 960 960" width="24"><path d="M532-138.667q-7.421 7.334-17.377 7.334t-17.29-7.334L140.667-495.333q-4.334-4.334-6.5-9.093Q132-509.184 132-514.667V-804q0-9.667 7.167-16.833Q146.333-828 156-828h289.333q4.334 0 9.155 1.833 4.821 1.834 8.845 4.834l356 356q8.334 8.333 8.834 19.166.5 10.834-6.834 18.167L532-138.667Zm-17.114-16.666 289.781-290L445.781-804H156v289.333l358.886 359.334Zm-257.67-515.334q13.451 0 22.784-9.549 9.333-9.549 9.333-23T280.118-726q-9.216-9.333-22.667-9.333-14.118 0-23.451 9.215-9.333 9.216-9.333 22.667 0 13.451 9.215 23.118 9.216 9.666 23.334 9.666ZM156-804Z"/></svg>