<svg xmlns="http://www.w3.org/2000/svg" height="32" viewBox="0 -960 960 960" width="32" fill="#808080"><path d="M476-100.001 654.154-560h62.46l178.153 459.999h-63.614l-45.308-122H584.922l-45.308 122H476ZM160.385-217.694l-42.153-42.152 198.923-199.308q-34.616-35-65.808-83.077-31.193-48.077-51.346-97.769h63.614q17.307 36.307 42.115 72.616 24.808 36.308 53.577 66.077 42.617-43 80.617-104.424 38-61.423 53.692-114.269H67.694v-59.999h262.307v-64.614h59.998v64.614h262.307V-720h-97.922q-19.462 67.384-62.038 140.884-42.577 73.5-90.886 121.193l98.693 101.077-22.692 61.614-118.154-121.154-198.922 198.692Zm443.767-57.383h162.463l-81.231-218.232-81.232 218.232Z"/></svg>