<svg xmlns="http://www.w3.org/2000/svg" height="24" viewBox="0 -960 960 960" width="24"><path d="M480.183-126.154q-73.397 0-138.067-27.886t-112.508-75.69q-47.838-47.805-75.646-112.288t-27.808-137.799q0-73.397 27.886-138.067t75.69-112.508q47.805-47.838 112.288-75.646t137.799-27.808q73.397 0 138.067 27.886t112.508 75.69q47.838 47.805 75.646 112.288t27.808 137.799q0 73.397-27.886 138.067t-75.69 112.508q-47.805 47.838-112.288 75.646t-137.799 27.808Zm-39.568-38.308v-78q-32.5 0-55.634-23.134-23.135-23.135-23.135-55.6v-39.353L171.077-551.385q-3 18.135-5.5 35.885-2.5 17.75-2.5 35.5 0 120.178 78.745 210.358t198.793 105.18Zm272.923-101.384q20-21.885 35.693-47.077 15.692-25.192 26.192-52.407 10.5-27.215 16-55.914t5.5-58.587q0-98.213-53.558-178.729-53.557-80.517-144.596-116.517v17.539q0 32.884-23.206 56.134t-56.131 23.25h-78.817v78.635q0 17.134-11.536 28.677-11.537 11.543-28.592 11.543h-79.256V-480h237.436q17.102 0 28.602 11.555 11.5 11.556 11.5 28.637v118.577h40q25.61 0 46.295 15.223 20.685 15.224 28.474 40.162Z"/></svg>